{
  "accessors": [
    {
      "bufferView": 2,
      "componentType": 5126,
      "count": 1758,
      "max": [
        9.7175998687744141,
        7.9910001754760742,
        30.210500717163086
      ],
      "min": [
        -8.0001001358032227,
        -7.1354999542236328,
        10.873200416564941
      ],
      "type": "VEC3"
    },
    {
      "bufferView": 2,
      "byteOffset": 21096,
      "componentType": 5126,
      "count": 1758,
      "max": [
        0.99793869256973267,
        0.99887049198150635,
        0.99927544593811035
      ],
      "min": [
        -0.99954098463058472,
        -0.99992597103118896,
        -0.99926519393920898
      ],
      "type": "VEC3"
    },
    {
      "bufferView": 3,
      "componentType": 5126,
      "count": 1758,
      "max": [
        0.99966412782669067,
        0.9997742772102356,
        0.99900299310684204,
        1
      ],
      "min": [
        -0.99647814035415649,
        -0.99910718202590942,
        -0.99972569942474365,
        -1
      ],
      "type": "VEC4"
    },
    {
      "bufferView": 1,
      "componentType": 5126,
      "count": 1758,
      "max": [
        0.99320000410079956,
        0.99129998683929443
      ],
      "min": [
        0.0046999999321997166,
        0.0065000001341104507
      ],
      "type": "VEC2"
    },
    {
      "bufferView": 0,
      "componentType": 5125,
      "count": 8697,
      "max": [
        1757
      ],
      "min": [
        0
      ],
      "type": "SCALAR"
    },
    {
      "bufferView": 2,
      "byteOffset": 42192,
      "componentType": 5126,
      "count": 338,
      "max": [
        6.438499927520752,
        7.7845001220703125,
        27.375600814819336
      ],
      "min": [
        -6.159599781036377,
        -5.1937999725341797,
        14.921600341796875
      ],
      "type": "VEC3"
    },
    {
      "bufferView": 2,
      "byteOffset": 46248,
      "componentType": 5126,
      "count": 338,
      "max": [
        0.99991774559020996,
        0.97844880819320679,
        0.98748189210891724
      ],
      "min": [
        -0.99736171960830688,
        -0.58499079942703247,
        -0.99652636051177979
      ],
      "type": "VEC3"
    },
    {
      "bufferView": 3,
      "byteOffset": 28128,
      "componentType": 5126,
      "count": 338,
      "max": [
        0.99908727407455444,
        0.1216944083571434,
        0.63246774673461914,
        1
      ],
      "min": [
        -0.99218368530273438,
        -0.99988573789596558,
        -0.59940469264984131,
        1
      ],
      "type": "VEC4"
    },
    {
      "bufferView": 1,
      "byteOffset": 14064,
      "componentType": 5126,
      "count": 338,
      "max": [
        0.99129998683929443,
        0.99510002136230469
      ],
      "min": [
        0.73299998044967651,
        0.42250001430511475
      ],
      "type": "VEC2"
    },
    {
      "bufferView": 0,
      "byteOffset": 34788,
      "componentType": 5125,
      "count": 1743,
      "max": [
        337
      ],
      "min": [
        0
      ],
      "type": "SCALAR"
    }
  ],
  "asset": {
    "extras": {
      "author": "down_limit (https://sketchfab.com/down_limit)",
      "license": "CC-BY-NC-4.0 (http://creativecommons.org/licenses/by-nc/4.0/)",
      "source": "https://sketchfab.com/models/5b54eab1203d4cb2bc0ae60652423427",
      "title": "Hotline Miami 2: Wrong number - Tony mask"
    },
    "generator": "Sketchfab-3.19.6",
    "version": "2.0"
  },
  "bufferViews": [
    {
      "buffer": 0,
      "byteLength": 41760,
      "byteOffset": 0,
      "name": "floatBufferViews",
      "target": 34963
    },
    {
      "buffer": 0,
      "byteLength": 16768,
      "byteOffset": 41760,
      "byteStride": 8,
      "name": "floatBufferViews",
      "target": 34962
    },
    {
      "buffer": 0,
      "byteLength": 50304,
      "byteOffset": 58528,
      "byteStride": 12,
      "name": "floatBufferViews",
      "target": 34962
    },
    {
      "buffer": 0,
      "byteLength": 33536,
      "byteOffset": 108832,
      "byteStride": 16,
      "name": "floatBufferViews",
      "target": 34962
    }
  ],
  "buffers": [
    {
      "byteLength": 142368,
      "uri": "scene.bin"
    }
  ],
  "extensionsRequired": [
    "KHR_materials_pbrSpecularGlossiness"
  ],
  "extensionsUsed": [
    "KHR_materials_pbrSpecularGlossiness"
  ],
  "images": [
    {
      "uri": "textures/head_diffuse.png"
    },
    {
      "uri": "textures/head_normal.png"
    },
    {
      "uri": "textures/head_specularGlossiness.png"
    },
    {
      "uri": "textures/head_occlusion.png"
    }
  ],
  "materials": [
    {
      "doubleSided": false,
      "extensions": {
        "KHR_materials_pbrSpecularGlossiness": {
          "diffuseFactor": [
            1,
            1,
            1,
            1
          ],
          "diffuseTexture": {
            "index": 0,
            "texCoord": 0
          },
          "glossinessFactor": 1,
          "specularFactor": [
            0.093178353699999994,
            0.093178353699999994,
            0.093178353699999994
          ],
          "specularGlossinessTexture": {
            "index": 2,
            "texCoord": 0
          }
        }
      },
      "name": "head",
      "normalTexture": {
        "index": 1,
        "scale": 1,
        "texCoord": 0
      },
      "occlusionTexture": {
        "index": 3,
        "strength": 0.4834222561,
        "texCoord": 0
      }
    }
  ],
  "meshes": [
    {
      "primitives": [
        {
          "attributes": {
            "NORMAL": 1,
            "POSITION": 0,
            "TANGENT": 2,
            "TEXCOORD_0": 3
          },
          "indices": 4,
          "material": 0,
          "mode": 4
        }
      ]
    },
    {
      "primitives": [
        {
          "attributes": {
            "NORMAL": 6,
            "POSITION": 5,
            "TANGENT": 7,
            "TEXCOORD_0": 8
          },
          "indices": 9,
          "material": 0,
          "mode": 4
        }
      ]
    }
  ],
  "nodes": [
    {
      "children": [
        1
      ],
      "name": "RootNode (gltf orientation matrix)",
      "rotation": [
        -0.70710678118654746,
        -0,
        -0,
        0.70710678118654757
      ]
    },
    {
      "children": [
        2
      ],
      "name": "RootNode (model correction matrix)"
    },
    {
      "children": [
        3,
        4
      ],
      "name": "a145d521e10e4ff3adb0f807e4f4ca2c.obj.cleaner"
    },
    {
      "mesh": 0,
      "name": ""
    },
    {
      "mesh": 1,
      "name": ""
    }
  ],
  "samplers": [
    {
      "magFilter": 9729,
      "minFilter": 9987,
      "wrapS": 10497,
      "wrapT": 10497
    }
  ],
  "scene": 0,
  "scenes": [
    {
      "name": "OSG_Scene",
      "nodes": [
        0
      ]
    }
  ],
  "textures": [
    {
      "sampler": 0,
      "source": 0
    },
    {
      "sampler": 0,
      "source": 1
    },
    {
      "sampler": 0,
      "source": 2
    },
    {
      "sampler": 0,
      "source": 3
    }
  ]
}

